<?xml version="1.0" encoding="utf-8"?>
<!-- Generator: Adobe Illustrator 26.1.0, SVG Export Plug-In . SVG Version: 6.00 Build 0)  -->
<svg version="1.1" id="Layer_1" xmlns="http://www.w3.org/2000/svg" xmlns:xlink="http://www.w3.org/1999/xlink" x="0px" y="0px"
	 viewBox="0 0 200 200" style="enable-background:new 0 0 200 200;" xml:space="preserve">
<style type="text/css">
	.st0{fill:#FFC6FF;}
	.st1{fill:#0D0D0C;}
</style>
<path class="st0" d="M200,100c0,55.2-44.8,100-100,100C44.8,200,0,155.2,0,100C0,44.8,44.8,0,100,0C155.2,0,200,44.8,200,100z"/>
<circle class="st1" cx="170.7" cy="82.4" r="3.5"/>
<circle class="st1" cx="29.1" cy="116.2" r="3.5"/>
<g>
	<path d="M162.9,99.7l18.4,0l-0.4,3.4l-15.9-0.3l-0.1,0.5l15.4,4.3l-0.8,5.9l-16,0.2l-0.1,0.5l15.4,3.8l-0.4,3.4l-17.7-4.8l0.8-5.9
		l16.3-0.2l0.1-0.5l-15.7-4.4L162.9,99.7z"/>
	<path d="M156.3,126c1-2.1,2.3-3.5,4-4.2c1.7-0.7,3.6-0.6,5.7,0.4l4,1.8c2.1,1,3.5,2.3,4,4.1c0.6,1.8,0.4,3.7-0.6,5.7
		c-1,2.1-2.3,3.5-4,4.2c-1.7,0.7-3.6,0.6-5.7-0.4l-4-1.8c-2.1-1-3.5-2.3-4-4.1C155.1,130,155.3,128.1,156.3,126z M159.1,127.3
		c-0.5,1.2-0.6,2.2-0.2,3.2c0.4,1,1.1,1.7,2.3,2.2l4.2,1.9c1.1,0.5,2.2,0.6,3.2,0.3c1-0.3,1.7-1.1,2.3-2.2c0.5-1.2,0.6-2.2,0.2-3.2
		c-0.4-1-1.1-1.7-2.3-2.2l-4.2-1.9c-1.1-0.5-2.2-0.6-3.2-0.3C160.3,125.4,159.6,126.1,159.1,127.3z"/>
	<path d="M152.5,134.3l14.1,11.5l-5,6.1c-0.7,0.9-1.5,1.5-2.4,1.9c-0.8,0.4-1.7,0.6-2.6,0.5c-0.9-0.1-1.7-0.5-2.4-1.1l-0.2-0.2
		c-0.8-0.7-1.4-1.5-1.6-2.3c-0.2-0.8-0.2-1.6,0.1-2.4l-0.4-0.3c-0.5,0.5-1,0.8-1.6,0.8c-0.6,0-1.2-0.2-1.7-0.7l-4.6-3.8l2.2-2.7
		l4.2,3.5c0.3,0.3,0.7,0.4,1,0.4c0.3,0,0.7-0.2,1-0.6l3-3.7l-5.3-4.3L152.5,134.3z M158,143.3l-2.6,3.2c-0.5,0.6-0.7,1.3-0.7,1.9
		c0.1,0.6,0.4,1.2,0.9,1.6l0.2,0.2c0.6,0.5,1.2,0.7,1.8,0.6c0.6-0.1,1.2-0.4,1.7-1.1l2.6-3.2L158,143.3z"/>
	<path d="M142.6,146l10.9,14.5l-2.7,2.1l-4.3-5.8l-0.4,0.3l-0.4,9.3l-3.5,2.6l0.7-11.7l-11.8-2.7l3.6-2.7l9.3,2.3l0.4-0.3l-4.4-5.9
		L142.6,146z"/>
	<path d="M123.6,158.3l6.8,17l-3.3,0.8l-5.6-14.9l-0.5,0.1l1.7,15.9l-5.7,1.5l-6.1-14.8l-0.5,0.1l2.2,15.8l-3.3,0.8l-2.2-18.2
		l5.7-1.5l6.3,15.1l0.5-0.1l-1.7-16.2L123.6,158.3z"/>
	<path d="M103.3,162.3l0.4,18.2l-3.4,0.1l-0.4-18.2L103.3,162.3z"/>
	<path d="M92.9,162l-2.1,14.9l5.3,0.7l-0.4,3.1l-13.9-2l0.4-3.1l5.3,0.7l2.1-14.9L92.9,162z"/>
	<path d="M82.9,160.3l-6.8,16.9l-3.2-1.3l2.8-7l-6.3-2.5l-2.8,7l-3.2-1.3l6.8-16.9l3.2,1.3l-2.8,7l6.3,2.5l2.8-7L82.9,160.3z"/>
	<path d="M62.9,151.1L50.1,164l-4.5-4.5l9-13.5l-0.3-0.3l-13.4,9l-4.5-4.5l12.8-12.9l2.4,2.3l-11.1,11.1l0.3,0.3l13.3-8.9l4,4
		l-8.9,13.3l0.3,0.3l11.1-11.1L62.9,151.1z"/>
	<path d="M48.4,135.4l-15.8,9l-5.8-10.2l2.7-1.5l4.1,7.2l3.8-2.1l-3.7-6.6l2.7-1.5l3.7,6.6l3.9-2.2l-4.1-7.3l2.7-1.5L48.4,135.4z"/>
	<path d="M38.3,94.3c-0.2,1.9-0.9,3.3-2,4.3c-1.1,1-2.6,1.4-4.4,1.2l-1.7-0.2l0.4-3.4l1.7,0.2c0.8,0.1,1.5-0.1,2-0.5
		c0.5-0.4,0.8-1,0.9-1.8c0.1-0.8-0.1-1.4-0.5-1.8c-0.4-0.5-1-0.8-1.8-0.8l-9.6-1.1l-0.3,3.1L19.7,93l0.9-8.6l3.1,0.3l-0.2,2.1
		l9.6,1.1c1.9,0.2,3.3,0.9,4.1,2C38.1,91,38.5,92.5,38.3,94.3z"/>
	<path d="M41.7,78.8c-0.8,2.2-2,3.6-3.6,4.5c-1.6,0.8-3.6,0.9-5.8,0.1l-4.1-1.5c-2.2-0.8-3.7-2-4.4-3.7c-0.7-1.7-0.7-3.6,0.1-5.8
		s2-3.6,3.6-4.5c1.6-0.8,3.6-0.9,5.8-0.1l4.1,1.5c2.2,0.8,3.7,2,4.4,3.7S42.5,76.7,41.7,78.8z M38.9,77.8c0.4-1.2,0.4-2.3,0-3.2
		c-0.5-0.9-1.3-1.6-2.4-2L32.1,71c-1.2-0.4-2.2-0.4-3.2,0c-0.9,0.4-1.6,1.2-2.1,2.4c-0.4,1.2-0.4,2.2,0,3.2c0.5,0.9,1.3,1.6,2.4,2
		l4.3,1.6c1.2,0.4,2.2,0.4,3.2,0S38.4,79,38.9,77.8z"/>
	<path d="M45.3,70.1l-15.7-9.2l1.7-3L47,67.1L45.3,70.1z"/>
	<path d="M48,65L34.1,53.2l4.2-5l14.4,7.5l0.3-0.4L41,45.1l2.2-2.6L57,54.3l-4.2,5l-14.4-7.5l-0.3,0.4l12.1,10.3L48,65z"/>
	<path d="M67.4,46.8l-7.5-13.1l-4.6,2.7l-1.6-2.7l12.2-7l1.6,2.7l-4.6,2.6l7.5,13.1L67.4,46.8z"/>
	<path d="M76.2,42l-5-17.5l3.3-1l2.1,7.2l6.5-1.9L81,21.7l3.3-1l5,17.5l-3.3,1l-2.1-7.3l-6.5,1.9l2.1,7.3L76.2,42z"/>
	<path d="M91.4,38l-0.9-18.2l11.7-0.6l0.2,3.1l-8.3,0.4l0.2,4.3l7.5-0.4l0.2,3.1l-7.5,0.4l0.2,4.5l8.4-0.4l0.2,3.1L91.4,38z"/>
	<path d="M117.6,40.6c-2.2-0.6-3.7-1.7-4.6-3.3c-0.9-1.6-1-3.5-0.4-5.7l1.2-4.2c0.7-2.2,1.8-3.8,3.4-4.6c1.6-0.8,3.5-0.9,5.7-0.3
		c2.1,0.6,3.6,1.7,4.5,3.2s1,3.3,0.4,5.3l0,0.2l-3.2-0.9l0.1-0.2c0.3-1,0.3-2-0.1-2.8c-0.4-0.8-1.2-1.4-2.3-1.8
		c-1.2-0.3-2.2-0.2-3.1,0.3c-0.9,0.5-1.5,1.4-1.8,2.6l-1.2,4.3c-0.4,1.2-0.3,2.3,0.2,3.2c0.5,0.9,1.3,1.5,2.4,1.9
		c1.2,0.3,2.2,0.3,2.9-0.2s1.3-1.3,1.6-2.3l0.1-0.4l3.2,0.9l-0.1,0.3c-0.6,2-1.6,3.5-3.2,4.3C121.5,41.1,119.7,41.2,117.6,40.6z"/>
	<path d="M125.8,43l8.9-15.9l3,1.7l-7.4,13.2l7.3,4.1l-1.5,2.7L125.8,43z"/>
	<path d="M141.7,54.2c-1.1-1-1.9-2.1-2.3-3.2s-0.5-2.2-0.2-3.4s0.9-2.2,1.8-3.2l8-8.7l2.5,2.3l-8,8.8c-0.7,0.8-1.1,1.7-1.1,2.6
		c0,0.9,0.5,1.8,1.4,2.6c0.9,0.8,1.8,1.2,2.7,1.1c0.9,0,1.7-0.5,2.5-1.3l8-8.8l2.5,2.3l-8,8.7c-0.9,1-2,1.7-3.1,2.1
		c-1.1,0.4-2.2,0.4-3.4,0.1S142.8,55.2,141.7,54.2z"/>
	<path d="M148.3,59.9l2.5-1.6l1.3,2l10.2-6.6l-1.3-2l2.5-1.6l5.1,7.9c0.6,0.9,1,1.8,1.1,2.7c0.1,0.9,0,1.7-0.3,2.5s-0.9,1.4-1.7,1.9
		l-0.2,0.1c-0.7,0.5-1.4,0.7-2,0.7s-1.2-0.1-1.6-0.3c-0.5-0.2-0.9-0.4-1.2-0.7l-0.4,0.3c0.1,0.4,0.2,0.8,0.2,1.4s-0.1,1.1-0.4,1.6
		c-0.3,0.6-0.8,1.1-1.5,1.5l-0.2,0.1c-0.8,0.5-1.7,0.8-2.6,0.8c-0.9,0-1.7-0.2-2.4-0.7c-0.8-0.5-1.4-1.2-2-2.1L148.3,59.9z
		 M154.1,63.1l1.8,2.7c0.4,0.6,0.9,1,1.4,1.2c0.6,0.2,1.1,0.1,1.7-0.3l0.2-0.1c0.6-0.4,0.9-0.8,0.9-1.4c0.1-0.6-0.1-1.2-0.5-1.8
		l-1.8-2.7L154.1,63.1z M160.5,59l1.7,2.7c0.4,0.6,0.9,1,1.4,1.2c0.6,0.2,1.1,0.1,1.6-0.2l0.2-0.1c0.6-0.4,0.9-0.8,0.9-1.4
		c0.1-0.6-0.1-1.2-0.5-1.8l-1.7-2.7L160.5,59z"/>
</g>
</svg>
